<?xml version="1.0" encoding="utf-8" ?>
<svg xmlns="http://www.w3.org/2000/svg" xmlns:xlink="http://www.w3.org/1999/xlink" width="512" height="512">
	<path fill="#F7F1F1" transform="scale(0.666667 0.666667)" d="M-0 -0L768 0L768 768L-0 768L0 -0Z"/>
	<path fill="#BA817A" transform="scale(0.666667 0.666667)" d="M289.191 383.738C287.185 379.936 285.488 374.688 285.902 370.312L286.312 370.415L287.574 375.15C288.667 378.852 290.493 382.113 294.032 383.966C297.258 385.654 301.103 386.046 304.572 384.874C311.806 382.431 316.906 375.837 319.946 369.12C321.172 366.41 321.658 363.903 321.853 360.936C321.884 360.47 322.113 359.148 321.978 358.735C321.303 356.673 307.787 352.082 306.691 347.372C306.309 345.728 306.747 344.168 307.584 342.75C309.773 339.043 313.569 336.858 317.651 335.807C323.977 334.177 331.898 334.441 337.608 337.929C340.351 339.605 343.029 342.498 343.688 345.704C344.758 350.915 337.083 354.338 333.158 355.983C331.704 356.592 329.344 357.163 328.495 358.5C328.437 360.798 328.587 362.679 329.323 364.88C331.514 371.435 336.486 379.232 342.902 382.288C347.002 384.24 352.139 384.686 356.424 383.085C363.262 380.531 362.433 373.456 364.826 367.903C364.963 372.376 364.148 376.472 362.8 380.702C360.948 383.681 358.759 386.852 355.125 387.715C349.924 388.95 344.591 387.385 340.237 384.495C333.53 380.044 328.218 371.629 325.499 364.219C321.518 373.313 316.835 383.336 306.996 387.304C302.94 388.94 298.642 389.363 294.566 387.562C292.418 386.614 290.887 385.338 289.191 383.738Z"/>
	<path fill="#F2AB75" transform="scale(0.666667 0.666667)" d="M214.511 706.773C214.479 708.661 214.27 710.829 214.581 712.686C215.204 716.416 218.12 720.477 220.697 723.144C222.859 725.381 225.139 727.002 227.771 728.63C232.71 732.141 236.89 734.187 242.923 735.142L241.508 735.949C237.835 735.58 233.994 735.68 230.297 735.562L208.619 734.879L98.165 730.38L63.8672 727.893L48.1875 726.062C44.5191 725.448 40.9123 724.889 37.6875 722.92L37.5658 722.25L38.2642 721.476C44.1498 716.165 95.9648 715.696 106.407 715.363L212.806 713.589C212.597 712.098 212.517 710.712 212.57 709.207C212.747 709.178 213.224 709.113 213.368 709.031C214.188 708.559 214.248 707.613 214.511 706.773Z"/>
	<path fill="#F2AB75" transform="scale(0.666667 0.666667)" d="M435.049 712.855C435.407 713.337 435.693 713.655 436.125 714.054L436.981 713.717C437.044 712.194 437.137 710.791 437.522 709.31L437.617 708.96C437.652 711.566 437.498 714.324 438.331 716.812L438.461 717.23C440.169 722.375 445.314 725.62 449.257 728.864C456.456 734.3 462.835 736.057 471.76 736.206C473.645 736.237 475.917 736.461 477.761 736.131L478.603 735.912C479.211 735.749 479.811 735.69 480.434 735.606C482.572 735.318 484.293 734.865 486.188 733.832L487.604 733.054L487.923 733.174C489.576 733.538 492.916 731.842 494.547 731.192C502.134 728.17 509.846 724.824 516.942 720.768C521.021 718.436 524.854 715.716 528.765 713.119L529.172 713.334C531.26 714.124 536.194 713.314 538.526 713.286L558.02 713.336L646.284 715.219L690.337 717.44C698.411 718.076 706.869 718.567 714.75 720.454C717.197 721.04 719.157 721.967 721.335 723.193C714.222 726.311 706.075 726.856 698.404 727.578L669.018 729.645L570.864 733.624L520.09 735.328L488.486 735.805L473.742 736.812L453.228 736.554L394.083 736.969L372.411 737.152C368.329 737.217 364.072 737.508 360.01 737.254L359.767 736.477C363.692 736.509 368.187 736.895 371.934 735.605C374.592 734.69 377.191 732.938 379.634 731.543C382.461 732.699 403.571 722.571 407.111 720.682C411.584 718.296 416.234 714.605 421.064 713.176L422.005 714.229C424.829 714.858 427.908 714.661 430.79 714.702C432.138 714.722 433.742 715.026 434.93 714.375L435.049 712.855Z"/>
	<path fill="#F37B15" transform="scale(0.666667 0.666667)" d="M72.4774 37.8208L73.0069 34.4368C74.3082 33.9309 77.0441 34.4334 78.5098 34.5533C96.8578 36.0541 115.76 43.3337 132.535 50.7286C163.346 64.3107 193.33 80.6785 221.552 99.0496L253.334 121.404L257.616 124.633C257.771 124.757 258.93 125.814 259.132 125.864C259.623 125.984 261.717 125.271 262.406 125.116C266.138 124.275 270.451 123.034 274.263 122.925C281.175 121.474 288.64 121.093 295.688 120.701C319.448 119.381 343.773 119.781 367.152 124.469C370.924 125.226 375.501 125.936 378.927 127.671C380.392 126.844 381.566 125.609 382.875 124.558L389.438 119.608L411.829 104.278C435.634 88.5461 460.415 73.8777 486.107 61.4318C501.414 54.0163 516.535 47.3737 532.821 42.3404C538.25 40.6628 561.822 33.0361 566.124 35.3041C567.538 41.5418 568.046 48.0787 568.527 54.4482L569.745 78.4446C570.146 94.9222 570.24 111.683 569.247 128.138C568.388 142.369 566.426 156.591 564.337 170.684L561.035 192.729L548.833 249.157L541.915 282.263C542.554 286.162 544.151 290.269 545.232 294.096L551.115 314.674C552.994 321.094 554.785 327.697 558.228 333.489C560.93 338.033 564.215 340.781 568.218 344.083C576.582 347.544 587.22 348.122 596.162 347.216L583.179 352.358C580.136 354.34 577.019 356.103 574.126 358.319C567.072 363.725 560.429 370.473 555.561 377.916C550.857 385.108 547.485 393.146 544.292 401.093L562.977 403.796C563.824 401.59 565.467 399.372 566.606 397.249C576.099 379.55 588.773 365.352 602.904 351.276C609.459 344.746 616.696 338.427 621.953 330.759C626.355 324.338 629.45 316.543 630.958 308.916C635.163 287.646 632.836 260.773 621.157 242.169C617.266 235.971 611.837 231.24 607.801 225.223C608.531 224.275 609.844 223.586 610.85 222.933C614.882 220.315 618.885 219.105 623.543 218.147L623.596 218.101C629.398 216.112 637.203 216.302 643.305 216.309C646.264 216.313 649.333 216.158 652.249 216.723C677.98 218.911 702.989 231.233 719.706 251.119C739.05 274.13 745.2 309.894 742.53 339.22C739.984 367.187 729.771 394.776 712.16 416.812C705.138 425.6 696.891 433.332 688.246 440.495C668.333 456.992 641 473.891 614.12 471.241C594.404 469.297 576.112 461.046 561.361 447.863C558.318 445.143 555.22 442.387 552.627 439.226C551.627 438.007 550.833 436.765 550.097 435.375L549.775 434.783C549.429 433.818 549.839 432.159 550.022 431.146C551.376 423.664 555.124 416.449 559.099 410.035L544.653 421.741C529.092 433.747 513.083 445.588 494.871 453.285C480.934 459.176 465.144 462.779 450.258 465.56C441.063 467.278 429.985 470.042 420.642 468.728C417.815 468.331 415.394 466.878 413.695 464.591C411.688 461.89 411.931 459.187 412.481 456.066L418.337 429.554C418.902 426.533 419.636 423.391 419.774 420.319C420.251 419.763 420.62 413.613 420.685 412.613C421.457 400.773 418.669 387.55 410.699 378.438L403.099 372.053L398.283 368.381C395.324 366.935 392.086 363.647 389.369 361.668C384.98 358.471 380.581 355.416 376.437 351.887C371.58 347.75 367.085 343.174 362.088 339.203C352.662 331.712 340.372 326.418 328.298 325.563C312.833 324.468 300.146 328.393 287.625 337.455C282.532 341.141 277.845 345.486 272.958 349.447L252.08 366.136L245.634 371.437C242.793 374.229 240.507 377.223 238.004 380.295L234.88 385.135C225.695 404.011 229.882 423.83 236.461 442.893C239.734 452.377 244.114 460.794 249.093 469.439L248.874 469.767C247.984 470.796 245.697 471.607 244.417 472.219C240.964 473.871 237.3 475.387 233.525 476.108C229.536 476.871 225.414 477.313 221.367 477.638L211.989 478.201C211.452 478.232 209.606 478.159 209.18 478.375C208.991 478.47 207.992 480.931 207.85 481.255C205.841 485.834 204.712 490.883 203.526 495.73C200.335 508.774 198.197 521.862 198.066 535.312C197.966 545.589 198.529 556.741 200.846 566.73C205.557 587.032 216.793 603.424 231.238 618.049C247.613 634.626 265.811 650.055 286.385 661.212C301.118 669.202 317.117 675.04 333.063 680.074L340.476 669.677L340.146 669.293C320.754 646.464 311.834 616.706 314.396 587.039C316.559 561.994 327.582 533.731 347.233 517.321C350.798 514.344 354.498 511.402 358.482 509C370.712 501.628 384.462 497.509 398.002 493.297L418.688 486.746L443.239 479.171L462.85 471.886C471.405 468.336 479.258 464.401 488.369 462.205C498.342 459.801 508.345 458.779 518.583 459.716C527.718 460.552 536.716 462.064 545.062 466.064C554.951 470.803 564.491 480.358 571.485 488.772C591.082 512.351 596.15 545.737 593.283 575.45C590.216 607.232 577.959 638.86 563.168 666.948C560.849 671.352 558.66 676.793 555.713 680.736C553.86 684.145 551.532 687.294 549.321 690.477C543.37 699.045 537.035 706.669 528.765 713.119C524.854 715.716 521.021 718.436 516.942 720.768C509.846 724.824 502.134 728.17 494.547 731.192C492.916 731.842 489.576 733.538 487.923 733.174L487.604 733.054L486.188 733.832C484.293 734.865 482.572 735.318 480.434 735.606C479.811 735.69 479.211 735.749 478.603 735.912L477.761 736.131C475.917 736.461 473.645 736.237 471.76 736.206C462.835 736.057 456.456 734.3 449.257 728.864C445.314 725.62 440.169 722.375 438.461 717.23L438.331 716.812C437.498 714.324 437.652 711.566 437.617 708.96L437.522 709.31C437.137 710.791 437.044 712.194 436.981 713.717L436.125 714.054C435.693 713.655 435.407 713.337 435.049 712.855L434.93 714.375C433.742 715.026 432.138 714.722 430.79 714.702C427.908 714.661 424.829 714.858 422.005 714.229L421.064 713.176C416.234 714.605 411.584 718.296 407.111 720.682C403.571 722.571 382.461 732.699 379.634 731.543C377.191 732.938 374.592 734.69 371.934 735.605C368.187 736.895 363.692 736.509 359.767 736.477L360.01 737.254L241.508 735.949L242.923 735.142C236.89 734.187 232.71 732.141 227.771 728.63C225.139 727.002 222.859 725.381 220.697 723.144C218.12 720.477 215.204 716.416 214.581 712.686C214.27 710.829 214.479 708.661 214.511 706.773C214.248 707.613 214.188 708.559 213.368 709.031C213.224 709.113 212.747 709.178 212.57 709.207C212.648 698.037 215.85 687.025 218.73 676.319L229.794 636.19C227.357 634.018 225.321 631.31 223.25 628.791C219.465 624.19 215.832 619.519 212.639 614.482C206.27 604.435 201.16 593.363 197.995 581.892C189.34 550.52 193.373 517.036 200.421 485.818C185.27 480.354 170.137 475.355 155.328 468.926C136.539 460.768 118.538 450.206 100.791 440.016L77.5287 426.824L57.66 413.243C54.4113 410.881 51.3445 408.326 47.9516 406.162L95.0083 402.601L94.8432 402.162C91.5443 393.532 86.3465 384.324 80.1211 377.438C70.713 367.03 58.042 359.539 45.4513 353.644L32.0556 348.004L38.9155 348.365L54.2305 348.037C60.9238 347.804 68.6535 347.396 74.7932 344.434C77.7859 342.99 80.0629 340.914 82.3921 338.583C84.1797 336.528 85.7818 334.364 86.8695 331.852C88.5039 328.078 89.3619 323.888 90.3191 319.896L94.1394 304.224L96.555 294.654C96.8164 293.473 97.3235 292.02 97.3774 290.826C97.4397 289.446 96.6496 287.79 96.1433 286.525C92.1562 274.033 89.9406 260.744 86.9298 247.966L75.6118 189.775C69.566 152.94 65.6392 115.766 67.721 78.3962C68.4815 64.7456 70.504 51.3316 72.4774 37.8208Z"/>
	<path fill="#F7F1F1" transform="scale(0.666667 0.666667)" d="M421.103 712.978L434.646 705.839L435.049 712.855L434.93 714.375C433.742 715.026 432.138 714.722 430.79 714.702C427.908 714.661 424.829 714.858 422.005 714.229L421.064 713.176L421.103 712.978Z"/>
	<path fill="#A53A00" transform="scale(0.666667 0.666667)" d="M298.389 682.834L296.635 681.562C296.48 680.436 296.726 680.143 297.188 679.129C298.567 678.617 303.148 680.017 304.686 680.676C305.532 681.038 306.527 681.034 307.428 681.18C308.218 681.309 308.657 681.701 309.375 681.941C310.159 682.204 310.812 682.369 311.625 682.691L312.938 683.066L318.375 684.941L319.003 685.184L319.619 685.441C320.415 685.765 320.005 685.625 320.632 685.781C321.175 685.915 320.909 685.838 321.526 686.147C322.183 686.476 322.751 686.592 323.438 686.816C323.984 686.995 324.458 687.195 325.02 687.355C325.764 687.568 326.198 687.866 326.812 688.316L327.844 688.219L329.529 685.206L329.804 685.261L326.107 692.987C323.036 691.469 319.363 690.473 316.125 689.302L298.389 682.834Z"/>
	<path fill="#F7F1F1" transform="scale(0.666667 0.666667)" d="M229.973 192.798C232.345 192.588 234.782 192.623 236.949 193.738C238.807 194.694 240.157 196.516 240.771 198.486C241.584 201.097 241.252 204.62 239.934 207C238.672 209.28 236.844 210.181 234.446 210.934C232.918 211.023 231.217 210.961 229.758 210.468C227.371 209.661 224.601 207.712 223.604 205.312C222.794 203.362 222.756 200.913 223.491 198.938C224.665 195.784 227.034 194.137 229.973 192.798Z"/>
	<path fill="#F7F1F1" transform="scale(0.666667 0.666667)" d="M403.422 192.437C405.322 192.334 407.049 192.238 408.888 192.845C411.649 193.756 414.02 195.726 415.277 198.362C416.36 200.631 416.278 202.367 415.406 204.692C414.161 208.008 412.184 209.858 409.044 211.305C407.135 211.512 405.51 211.387 403.664 210.817C400.786 209.927 398.408 207.999 397.045 205.295C396.031 203.285 395.963 200.857 396.71 198.75C397.83 195.591 400.56 193.816 403.422 192.437Z"/>
	<path fill="#CDBFAD" transform="scale(0.666667 0.666667)" d="M298.389 682.834L316.125 689.302C319.363 690.473 323.036 691.469 326.107 692.987C326.058 695.771 324.6 699.168 324.141 702.049L292.412 701.691L298.389 682.834Z"/>
	<defs>
		<linearGradient id="gradient_0" gradientUnits="userSpaceOnUse" x1="663.29376" y1="268.56314" x2="645.57489" y2="212.79372">
			<stop offset="0" stop-color="#FFB74D"/>
			<stop offset="1" stop-color="#FDD158"/>
		</linearGradient>
	</defs>
	<path fill="url(#gradient_0)" transform="scale(0.666667 0.666667)" d="M623.543 218.147L623.596 218.101C629.398 216.112 637.203 216.302 643.305 216.309C646.264 216.313 649.333 216.158 652.249 216.723L644.359 217.069C660.346 220.15 677.923 223.645 687.741 238.126C692.322 244.882 693.441 255.161 694.565 263.123C693.313 261.927 692.609 259.784 691.688 258.282C690.355 256.109 688.657 253.962 686.904 252.114C673.221 237.69 653.464 229.875 634.125 226.562C627.132 225.364 619.257 226.241 612.826 223.341C615.416 222.075 618.736 220.352 621.556 219.763L622.5 219.577C623.247 219.278 623.318 218.826 623.543 218.147Z"/>
	<path fill="#F7F1F1" transform="scale(0.666667 0.666667)" d="M437.617 708.96C438.219 706.046 439.351 703.986 441.927 702.333C447.879 698.515 456.346 700.039 462.799 701.426L464.2 701.679L475.927 705.394C482.941 708.699 488.3 712.682 491.137 720.211C492.014 722.536 492.719 725.694 491.583 728.062C490.714 729.874 489.09 731.704 487.604 733.054L486.188 733.832C484.293 734.865 482.572 735.318 480.434 735.606C479.811 735.69 479.211 735.749 478.603 735.912L477.761 736.131C475.917 736.461 473.645 736.237 471.76 736.206C462.835 736.057 456.456 734.3 449.257 728.864C445.314 725.62 440.169 722.375 438.461 717.23L438.331 716.812C437.498 714.324 437.652 711.566 437.617 708.96Z"/>
	<path fill="#BA817A" transform="scale(0.666667 0.666667)" d="M452.339 710.945L452.878 711.416L453.761 711.002L454.5 710.816C455.157 709.516 456.82 708.199 458.147 707.643C456.861 710.484 454.802 712.672 452.924 715.122C451.689 716.734 450.54 718.692 449.083 720.097C449.68 717.059 450.5 713.496 452.339 710.945Z"/>
	<path fill="#D88289" transform="scale(0.666667 0.666667)" d="M462.799 701.426L464.2 701.679C462.312 702.077 459.318 706.038 458.147 707.643C456.82 708.199 455.157 709.516 454.5 710.816L453.761 711.002L452.878 711.416L452.339 710.945L452.43 710.723C454.723 705.723 457.842 703.497 462.799 701.426Z"/>
	<path fill="#F7F1F1" transform="scale(0.666667 0.666667)" d="M327.633 708.324L327.692 707.916C328.182 705.378 329.372 702.467 331.594 700.984C336.522 697.695 345.013 699.711 350.44 700.831L355.86 701.951L366.369 705.398C372.615 708.172 379.091 712.456 381.583 719.151C382.694 722.137 383.5 725.63 382.034 728.625C381.44 729.837 380.628 730.651 379.634 731.543C377.191 732.938 374.592 734.69 371.934 735.605C368.187 736.895 363.692 736.509 359.767 736.477C357.489 736.354 355.047 736.37 352.821 735.84C347.88 734.662 342.687 731.567 338.736 728.413L338.392 728.432L337.125 727.491C335.502 726.293 334.066 725.065 332.685 723.594C328.557 719.196 327.435 714.259 327.633 708.324Z"/>
	<path fill="#FFCFC8" transform="scale(0.666667 0.666667)" d="M350.44 700.831L355.86 701.951C354.357 703.836 352.337 705.006 350.649 706.702C349.243 708.114 348.135 709.807 346.718 711.197C346.516 710.69 346.104 709.844 346.299 709.28C347.28 706.43 350.58 705.141 350.21 701.65L350.44 700.831Z"/>
	<path fill="#D88289" transform="scale(0.666667 0.666667)" d="M350.21 701.65C350.58 705.141 347.28 706.43 346.299 709.28C346.104 709.844 346.516 710.69 346.718 711.197C344.231 714.713 341.911 718.105 338.773 721.09C340.019 716.145 341.892 710.415 345.131 706.382C346.577 704.583 348.444 703.121 350.21 701.65Z"/>
	<path fill="#F7F1F1" transform="scale(0.666667 0.666667)" d="M214.511 706.773C215.28 704.6 216.459 702.828 218.323 701.437C224.43 696.884 232.808 698.227 239.74 699.39C240.594 699.528 241.593 699.588 242.411 699.847C246.594 699.576 250.353 700.969 254.32 702.077C260.737 704.034 267.461 707.913 270.828 713.925C272.434 716.791 272.942 720.03 271.994 723.188C271.117 726.11 269.313 728.653 267.094 730.72C259.591 735.294 251.561 736.178 242.923 735.142C236.89 734.187 232.71 732.141 227.771 728.63C225.139 727.002 222.859 725.381 220.697 723.144C218.12 720.477 215.204 716.416 214.581 712.686C214.27 710.829 214.479 708.661 214.511 706.773Z"/>
	<path fill="#D88289" transform="scale(0.666667 0.666667)" d="M229.218 710.186L229.753 710.665C232.414 709.949 234.15 705.705 237.27 704.65L226.291 718.98C227.095 716.043 227.742 712.876 229.191 710.185L229.218 710.186Z"/>
	<path fill="#BA817A" transform="scale(0.666667 0.666667)" d="M239.74 699.39C240.594 699.528 241.593 699.588 242.411 699.847C240.265 701.099 238.832 702.768 237.27 704.65C234.15 705.705 232.414 709.949 229.753 710.665L229.218 710.186C231.23 705.256 235.567 702.351 239.74 699.39Z"/>
	<path fill="#FFB3A8" transform="scale(0.666667 0.666667)" d="M451.302 161.932L460.309 150.211C468.581 140.224 478.667 130.72 488.485 122.218C499.05 113.069 539.068 82.391 550.895 81.7167C552.832 81.6063 554.648 81.9825 556.108 83.3373C558.805 85.8419 558.415 91.0507 558.494 94.4484C554.28 95.5652 551.055 97.795 547.409 100.088L534.434 108.557L499.875 132.37L471.323 150.874C466.87 153.976 462.98 157.707 458.639 160.925C457.285 161.928 455.703 162.475 454.398 163.48L451.302 161.932Z"/>
	<path fill="#EFAF7F" transform="scale(0.666667 0.666667)" d="M292.412 701.691L324.141 702.049C324.001 704.979 323.588 709.019 324.777 711.769L324.832 713.201L325.107 713.554C325.875 714.735 326.054 716.252 326.661 717.532C328.531 721.478 331.973 725.337 335.625 727.761L337.875 729.269C338.363 728.807 338.188 729.084 338.392 728.432L338.736 728.413C342.687 731.567 347.88 734.662 352.821 735.84C355.047 736.37 357.489 736.354 359.767 736.477L360.01 737.254L241.508 735.949L242.923 735.142C251.561 736.178 259.591 735.294 267.094 730.72L267.936 731.119C274.93 728.711 279.898 724.842 284.211 718.825C285.606 716.878 286.657 714.711 288.068 712.79L288.518 712.189L292.412 701.691Z"/>
	<path fill="#F7F1F1" transform="scale(0.666667 0.666667)" d="M292.412 701.691L324.141 702.049C324.001 704.979 323.588 709.019 324.777 711.769L324.832 713.201L302.012 713.283C297.802 713.295 293.358 713.589 289.183 713.116L288.518 712.189L292.412 701.691Z"/>
	<path fill="#FFB3A8" transform="scale(0.666667 0.666667)" d="M79.6202 95.6732C80.0044 92.1217 80.1488 86.6488 83.0336 84.147C84.9071 82.5222 87.8665 82.5924 90.2036 82.8782C96.8526 83.6914 103.748 88.0462 109.533 91.2696C130.579 102.995 150.096 117.339 167.187 134.326C173.017 140.12 178.771 146.08 183.764 152.625L188.251 158.641L184.462 160.923C183.242 158.905 178.781 156.907 176.731 155.457L152.594 138.693L80.501 95.4375L79.6202 95.6732Z"/>
	<defs>
		<linearGradient id="gradient_1" gradientUnits="userSpaceOnUse" x1="468.03174" y1="607.22009" x2="461.98679" y2="565.40698">
			<stop offset="0" stop-color="#FFA318"/>
			<stop offset="1" stop-color="#FFC745"/>
		</linearGradient>
	</defs>
	<path fill="url(#gradient_1)" transform="scale(0.666667 0.666667)" d="M431.808 601.421C433.911 591.942 439.439 581.674 446.686 575.137C454.969 567.664 467.143 562.668 478.39 563.367C482.894 563.646 487.243 564.637 491.22 566.812L491.709 567.077C496.768 569.87 500.261 575.014 501.823 580.488C502.604 583.226 502.455 585.509 501.021 588C499.2 591.163 496.018 593.926 493.112 596.061C486.189 601.145 478.256 604.851 469.902 606.872C465.767 607.873 461.497 608.504 457.249 608.696C451.115 608.974 444.825 608.697 438.881 610.472C436.23 611.264 433.781 612.79 431.28 613.964C431.242 609.765 431.074 605.574 431.808 601.421Z"/>
	<path fill="#FFCFC8" transform="scale(0.666667 0.666667)" d="M454.398 163.48C455.703 162.475 457.285 161.928 458.639 160.925C462.98 157.707 466.87 153.976 471.323 150.874L499.875 132.37L534.434 108.557L547.409 100.088C551.055 97.795 554.28 95.5652 558.494 94.4484C558.112 120.223 556.325 146.134 551.414 171.477C548.358 187.241 543.803 202.245 538.876 217.5L528.68 247.361C513.659 212.77 485.832 183.832 454.398 163.48Z"/>
	<path fill="#FFCFC8" transform="scale(0.666667 0.666667)" d="M79.6202 95.6732L80.501 95.4375L152.594 138.693L176.731 155.457C178.781 156.907 183.242 158.905 184.462 160.923C175.758 166.241 168.103 172.86 160.603 179.727C144.312 194.645 129.785 211.068 118.29 229.988C116.169 233.478 114.292 237.189 112.645 240.925C111.566 243.375 110.623 246.083 109.245 248.379C102.909 235.513 98.495 221.528 94.3656 207.813C85.8643 179.577 79.5062 150.296 78.7675 120.72C78.5576 112.319 79.0404 104.046 79.6202 95.6732Z"/>
	<path fill="#F7F1F1" transform="scale(0.666667 0.666667)" d="M227.914 242.392C240.297 240.931 253.352 245.042 263.339 252.281C276.622 261.909 285.465 275.367 287.94 291.755C290.2 306.727 287.723 323.441 278.519 335.812C268.643 349.087 251.911 356.42 235.962 358.788C221.602 360.391 206.837 356.63 195.304 347.833C183.578 338.888 177.015 325.956 175.171 311.496C173.088 295.16 178.572 277.63 188.636 264.723C197.818 252.946 213.115 244.166 227.914 242.392Z"/>
	<path fill="#96CBE0" transform="scale(0.666667 0.666667)" d="M273.201 322.415L273.15 322.735L273.05 323.244C272.83 324.484 272.417 325.259 271.772 326.326C266.903 334.383 259.211 340.174 249.988 342.353C239.664 344.792 228.942 343.103 219.938 337.468C210.504 331.565 203.219 321.279 200.97 310.378C198.751 299.621 201.791 286.731 207.942 277.731C213.202 270.034 222.342 263.439 231.578 261.73C235.303 261.04 242.496 260.003 245.97 261.633C246.842 262.042 247.699 262.203 248.641 262.386L249.102 262.474C238.359 262.406 229.65 265.152 221.871 272.797C214.898 279.65 211.067 288.475 211.062 298.277C211.057 308.557 215.027 318.413 222.352 325.691C228.949 332.245 237.492 337.192 247.013 337.152C255.038 337.117 263.473 332.776 269.035 327.161L273.201 322.415Z"/>
	<path fill="#043642" transform="scale(0.666667 0.666667)" d="M249.102 262.474C258.639 264.823 266.323 269.844 271.514 278.327C274.871 283.812 276.72 289.656 277.633 295.985C278.964 305.209 277.579 314.179 273.201 322.415L269.035 327.161C263.473 332.776 255.038 337.117 247.013 337.152C237.492 337.192 228.949 332.245 222.352 325.691C215.027 318.413 211.057 308.557 211.062 298.277C211.067 288.475 214.898 279.65 221.871 272.797C229.65 265.152 238.359 262.406 249.102 262.474Z"/>
	<path fill="#F7F1F1" transform="scale(0.666667 0.666667)" d="M229.507 275.355C231.365 275.22 233.499 275.321 235.275 275.913C238.343 276.936 240.777 279.471 242.062 282.384C243.119 284.778 242.907 288.142 241.941 290.534C240.753 293.476 238.328 295.347 235.515 296.571C233.133 296.69 231.245 296.786 229.033 295.685C226.017 294.184 224.15 291.413 223.119 288.294C222.188 285.478 222.004 282.54 223.448 279.89C224.789 277.43 226.911 276.153 229.507 275.355Z"/>
	<path fill="#F7F1F1" transform="scale(0.666667 0.666667)" d="M415.775 241.64C430.535 240.718 442.361 244.855 454.012 253.932C466.778 263.878 476.255 279.108 478.18 295.372C480.086 311.468 477.067 326.214 466.829 339.044C456.475 352.021 441.069 358.554 424.965 360.269C411.112 361.833 395.522 358.559 384.323 350.047C371.867 340.581 364.377 327.127 362.372 311.714C360.13 294.47 363.85 277.075 374.678 263.262C384.633 250.562 400.069 243.56 415.775 241.64Z"/>
	<path fill="#96CBE0" transform="scale(0.666667 0.666667)" d="M409.108 261.035C410.454 260.489 411.635 260.248 413.092 260.201C424.713 259.833 435.75 263.659 444.265 271.713C449.985 277.124 454.421 283.508 456.439 291.188L456.612 291.819C459.279 301.882 457.115 313.861 451.826 322.688C445.542 333.175 434.368 341.193 422.513 344.056C411.32 346.758 400.609 345.478 390.778 339.383C381.655 333.728 375.948 324.927 373.589 314.517C372.594 310.128 371.737 303.825 373.08 299.417C372.939 307.492 375.397 315.226 379.905 321.9C385.101 329.592 393.32 336.272 402.642 337.937C411.614 339.54 421.37 335.708 428.614 330.557C437.173 324.47 443.564 314.299 445.214 303.915C446.684 294.664 445.383 283.861 439.622 276.19C434.377 269.206 425.87 264.16 417.418 262.221C414.747 261.608 411.828 261.445 409.108 261.035Z"/>
	<path fill="#043642" transform="scale(0.666667 0.666667)" d="M409.108 261.035C411.828 261.445 414.747 261.608 417.418 262.221C425.87 264.16 434.377 269.206 439.622 276.19C445.383 283.861 446.684 294.664 445.214 303.915C443.564 314.299 437.173 324.47 428.614 330.557C421.37 335.708 411.614 339.54 402.642 337.937C393.32 336.272 385.101 329.592 379.905 321.9C375.397 315.226 372.939 307.492 373.08 299.417C373.833 290.805 376.363 283.079 381.599 276.117C388.511 266.928 397.967 262.583 409.108 261.035Z"/>
	<path fill="#F7F1F1" transform="scale(0.666667 0.666667)" d="M393.045 276.046C395.267 275.901 397.239 276.168 399.228 277.239C401.555 278.492 403.712 281.108 404.392 283.688C405.152 286.566 404.822 290.179 403.271 292.733C401.544 295.576 399.187 296.601 396.091 297.298C394.405 297.301 392.774 297.008 391.251 296.251C388.132 294.701 385.684 291.76 384.72 288.422C383.969 285.82 384.105 282.829 385.555 280.502C387.363 277.6 389.899 276.7 393.045 276.046Z"/>
</svg>
